<svg id="Layer_1" data-name="Layer 1" xmlns="http://www.w3.org/2000/svg" viewBox="0 0 360 203.86"><title>activity</title><path d="M236.51,147.47s-27.44,28.22-69,37.63A30.21,30.21,0,0,0,144,208.63L40.49,240a22.08,22.08,0,0,0-15.68,17.25l-3.92,15.68c-3.92,12.55,5.48,29,22,29,11,0,20.39-7.05,22.74-18l.78-2.35s118.4-36.07,119.19-36.07c17.25-4.71,34.5-11,51-20.39v53.32a23.53,23.53,0,0,0,47.05,0V189c11-12.54,9.41-32.15-2.36-43.12C267.87,134.14,247.49,134.92,236.51,147.47Zm33.72,32.14a8.49,8.49,0,0,0-3.14,6.28v92.52a7.84,7.84,0,1,1-15.68,0V211a8.24,8.24,0,0,0-3.92-7.06,7.11,7.11,0,0,0-7.84,0,217.15,217.15,0,0,1-58.81,25.88c-.78,0-123.1,37.63-123.1,37.63C51.47,270.57,50.68,280,50.68,280c-.78,3.92-5.49,7-9.41,5.49-3.92-.79-7.05-5.49-5.49-9.41l3.92-15.68a7.75,7.75,0,0,1,5.49-5.49l107.42-32.15a7.53,7.53,0,0,0,5.49-7.06c0-7.05,5.49-13.33,12.55-14.9,46.26-10.19,76-40.77,76.84-42.34,3.13-3.13,14.11-8.62,21.95-.78h0C275.72,163.15,276.5,172.56,270.23,179.61Z" transform="translate(-20 -98.07)"/><path d="M340.8,98.07a39.21,39.21,0,1,0,39.2,39.2A38.82,38.82,0,0,0,340.8,98.07Zm0,62.73a23.53,23.53,0,1,1,23.52-23.53A23.6,23.6,0,0,1,340.8,160.8Z" transform="translate(-20 -98.07)"/></svg>